<?xml version="1.0" encoding="UTF-8"?>
<!-- Generated by @neplex/vectorizer (Using visioncortex VTracer) -->
<svg version="1.1" xmlns="http://www.w3.org/2000/svg" width="499" height="499">
<path d="M0 0 C164.67 0 329.34 0 499 0 C499 164.67 499 329.34 499 499 C334.33 499 169.66 499 0 499 C0 334.33 0 169.66 0 0 Z " fill="#009DE4" transform="translate(0,0)"/>
<path d="M0 0 C164.67 0 329.34 0 499 0 C499 164.67 499 329.34 499 499 C334.33 499 169.66 499 0 499 C0 334.33 0 169.66 0 0 Z M137.184 41.168 C129.856 51.544 128.411 61.248 128.479 73.686 C128.473 75.269 128.465 76.852 128.455 78.434 C128.435 82.763 128.439 87.091 128.448 91.42 C128.453 96.096 128.435 100.773 128.42 105.449 C128.394 114.603 128.391 123.757 128.395 132.911 C128.399 140.355 128.395 147.798 128.387 155.242 C128.386 156.302 128.384 157.362 128.383 158.455 C128.381 160.609 128.378 162.763 128.376 164.917 C128.354 185.112 128.359 205.306 128.371 225.5 C128.381 243.958 128.359 262.416 128.321 280.874 C128.282 299.843 128.265 318.812 128.273 337.781 C128.277 348.424 128.272 359.067 128.243 369.71 C128.219 378.772 128.217 387.834 128.241 396.895 C128.253 401.515 128.255 406.134 128.231 410.754 C128.209 414.99 128.216 419.226 128.243 423.463 C128.249 424.988 128.244 426.513 128.228 428.038 C128.096 441.502 131.121 453.197 140.805 463.102 C150.798 471.743 161.595 474.463 174.562 474.388 C176.246 474.396 176.246 474.396 177.965 474.404 C181.706 474.418 185.448 474.411 189.189 474.404 C191.88 474.41 194.572 474.417 197.263 474.425 C203.802 474.442 210.34 474.443 216.879 474.438 C222.196 474.434 227.514 474.435 232.832 474.44 C233.59 474.441 234.348 474.442 235.13 474.443 C236.671 474.444 238.212 474.446 239.753 474.447 C254.186 474.461 268.62 474.456 283.053 474.444 C296.24 474.434 309.426 474.447 322.612 474.471 C336.173 474.495 349.733 474.505 363.294 474.498 C370.898 474.495 378.503 474.497 386.108 474.515 C392.582 474.529 399.056 474.53 405.53 474.513 C408.829 474.504 412.127 474.504 415.426 474.517 C419.012 474.53 422.598 474.519 426.184 474.501 C427.212 474.511 428.241 474.52 429.3 474.53 C440.154 474.421 450.731 471.239 459 464 C471.555 450.277 472.309 437.188 472.267 419.167 C472.271 417.618 472.276 416.068 472.281 414.519 C472.293 410.3 472.293 406.081 472.291 401.862 C472.29 397.297 472.301 392.732 472.311 388.167 C472.327 379.239 472.333 370.312 472.334 361.385 C472.335 354.126 472.339 346.868 472.346 339.61 C472.363 319.007 472.372 298.404 472.371 277.801 C472.371 276.692 472.371 275.583 472.371 274.441 C472.37 272.775 472.37 272.775 472.37 271.077 C472.37 253.074 472.389 235.071 472.417 217.068 C472.446 198.559 472.459 180.05 472.458 161.541 C472.457 151.159 472.462 140.777 472.484 130.395 C472.502 121.56 472.507 112.724 472.493 103.889 C472.487 99.385 472.486 94.881 472.504 90.377 C472.52 86.247 472.517 82.118 472.499 77.988 C472.496 76.501 472.5 75.014 472.511 73.527 C472.602 60.621 470.949 49.159 462.207 39.152 C458.796 35.826 455.17 33.283 451 31 C449.869 30.323 448.738 29.645 447.573 28.947 C442.255 26.317 437.206 26.443 431.368 26.492 C430.213 26.486 429.059 26.48 427.869 26.473 C424.682 26.46 421.495 26.465 418.307 26.477 C414.862 26.486 411.418 26.472 407.973 26.461 C401.232 26.443 394.49 26.447 387.748 26.459 C382.266 26.468 376.784 26.469 371.302 26.465 C370.521 26.464 369.739 26.464 368.935 26.463 C367.348 26.462 365.76 26.46 364.173 26.459 C349.298 26.448 334.423 26.461 319.548 26.482 C306.799 26.5 294.05 26.497 281.301 26.479 C266.483 26.457 251.664 26.449 236.846 26.461 C235.264 26.462 233.682 26.463 232.1 26.465 C231.321 26.465 230.543 26.466 229.741 26.467 C224.27 26.47 218.8 26.464 213.329 26.455 C206.655 26.444 199.981 26.447 193.306 26.468 C189.904 26.478 186.503 26.48 183.101 26.469 C179.404 26.458 175.709 26.472 172.013 26.492 C170.417 26.479 170.417 26.479 168.79 26.465 C156.008 26.598 145.454 31.297 137.184 41.168 Z " fill="#BCDCEF" transform="translate(0,0)"/>
<path d="M0 0 C164.67 0 329.34 0 499 0 C499 164.67 499 329.34 499 499 C334.33 499 169.66 499 0 499 C0 334.33 0 169.66 0 0 Z M28 19 C27.187 19.66 26.373 20.32 25.535 21 C15.007 29.866 7.253 42.268 5 56 C4.701 61.156 4.721 66.308 4.733 71.47 C4.729 73.054 4.724 74.638 4.719 76.221 C4.707 80.562 4.707 84.902 4.709 89.243 C4.71 93.929 4.699 98.615 4.689 103.301 C4.673 112.479 4.667 121.657 4.666 130.834 C4.665 138.298 4.661 145.762 4.654 153.226 C4.637 174.403 4.628 195.579 4.629 216.756 C4.629 217.897 4.629 219.039 4.629 220.214 C4.629 221.357 4.63 222.5 4.63 223.677 C4.63 242.183 4.611 260.688 4.583 279.194 C4.554 298.21 4.541 317.226 4.542 336.242 C4.543 346.912 4.538 357.582 4.516 368.252 C4.498 377.34 4.493 386.428 4.507 395.515 C4.513 400.147 4.514 404.779 4.496 409.411 C4.48 413.661 4.483 417.911 4.501 422.162 C4.504 423.689 4.5 425.217 4.489 426.745 C4.36 445.505 8.504 461.779 21.711 475.715 C37.322 491.299 52.947 494.503 74.505 494.531 C77.098 494.522 79.692 494.512 82.286 494.502 C85.047 494.503 87.807 494.511 90.568 494.518 C97.261 494.532 103.954 494.525 110.648 494.509 C118.455 494.492 126.263 494.496 134.07 494.5 C148.007 494.505 161.944 494.491 175.88 494.467 C189.38 494.443 202.88 494.436 216.38 494.446 C231.111 494.457 245.842 494.459 260.573 494.445 C262.146 494.443 263.719 494.442 265.291 494.44 C266.065 494.44 266.839 494.439 267.636 494.438 C273.068 494.433 278.501 494.435 283.934 494.439 C290.56 494.444 297.185 494.438 303.811 494.419 C307.187 494.409 310.562 494.405 313.938 494.411 C317.607 494.417 321.276 494.405 324.945 494.388 C325.998 494.394 327.051 494.4 328.135 494.406 C335.446 494.344 341.99 493.047 349 491 C349 490.67 349 490.34 349 490 C347.557 489.998 347.557 489.998 346.085 489.996 C322.638 489.959 299.192 489.899 275.746 489.816 C264.407 489.776 253.069 489.744 241.73 489.729 C231.844 489.716 221.957 489.689 212.07 489.645 C206.839 489.623 201.608 489.607 196.377 489.608 C191.444 489.609 186.512 489.591 181.58 489.559 C179.778 489.55 177.976 489.549 176.174 489.554 C157.835 489.604 142.758 485.656 129 473 C116.655 459.722 113.537 444.715 113.612 427.111 C113.608 425.518 113.603 423.926 113.596 422.333 C113.582 417.982 113.586 413.631 113.593 409.28 C113.598 404.578 113.585 399.876 113.575 395.174 C113.558 385.971 113.557 376.769 113.562 367.566 C113.566 360.084 113.565 352.602 113.56 345.12 C113.559 344.054 113.558 342.988 113.557 341.89 C113.556 339.724 113.554 337.558 113.553 335.392 C113.539 315.094 113.544 294.796 113.556 274.498 C113.566 255.942 113.553 237.387 113.529 218.831 C113.505 199.761 113.495 180.692 113.502 161.622 C113.505 150.923 113.503 140.223 113.485 129.524 C113.471 120.416 113.47 111.308 113.487 102.199 C113.496 97.556 113.498 92.912 113.483 88.269 C113.469 84.011 113.474 79.754 113.493 75.496 C113.497 73.963 113.494 72.429 113.483 70.896 C113.375 53.749 117.859 39.105 129.938 26.562 C144.786 12.545 161.834 11.704 181.345 11.681 C183.169 11.672 184.994 11.662 186.818 11.651 C191.736 11.624 196.655 11.608 201.574 11.595 C206.727 11.58 211.879 11.553 217.032 11.527 C226.775 11.481 236.517 11.444 246.26 11.411 C257.358 11.372 268.456 11.323 279.554 11.273 C302.369 11.169 325.185 11.08 348 11 C348 10.34 348 9.68 348 9 C340.338 7.352 333.069 6.712 325.242 6.746 C324.11 6.743 322.978 6.74 321.811 6.737 C318.046 6.729 314.28 6.735 310.514 6.741 C307.803 6.74 305.092 6.735 302.38 6.731 C295.797 6.722 289.214 6.724 282.631 6.729 C277.277 6.734 271.923 6.735 266.569 6.732 C265.805 6.732 265.042 6.732 264.255 6.731 C262.703 6.731 261.151 6.73 259.599 6.729 C245.066 6.724 230.533 6.73 216 6.741 C203.55 6.75 191.099 6.748 178.648 6.739 C164.167 6.729 149.685 6.724 135.204 6.73 C133.657 6.731 132.111 6.732 130.565 6.732 C129.424 6.733 129.424 6.733 128.259 6.733 C122.917 6.735 117.574 6.732 112.232 6.727 C105.714 6.722 99.196 6.723 92.678 6.734 C89.357 6.739 86.036 6.74 82.715 6.735 C79.105 6.729 75.495 6.736 71.885 6.746 C70.85 6.742 69.814 6.737 68.748 6.733 C54.141 6.81 39.253 9.135 28 19 Z M137.184 41.168 C129.856 51.544 128.411 61.248 128.479 73.686 C128.473 75.269 128.465 76.852 128.455 78.434 C128.435 82.763 128.439 87.091 128.448 91.42 C128.453 96.096 128.435 100.773 128.42 105.449 C128.394 114.603 128.391 123.757 128.395 132.911 C128.399 140.355 128.395 147.798 128.387 155.242 C128.386 156.302 128.384 157.362 128.383 158.455 C128.381 160.609 128.378 162.763 128.376 164.917 C128.354 185.112 128.359 205.306 128.371 225.5 C128.381 243.958 128.359 262.416 128.321 280.874 C128.282 299.843 128.265 318.812 128.273 337.781 C128.277 348.424 128.272 359.067 128.243 369.71 C128.219 378.772 128.217 387.834 128.241 396.895 C128.253 401.515 128.255 406.134 128.231 410.754 C128.209 414.99 128.216 419.226 128.243 423.463 C128.249 424.988 128.244 426.513 128.228 428.038 C128.096 441.502 131.121 453.197 140.805 463.102 C150.798 471.743 161.595 474.463 174.562 474.388 C176.246 474.396 176.246 474.396 177.965 474.404 C181.706 474.418 185.448 474.411 189.189 474.404 C191.88 474.41 194.572 474.417 197.263 474.425 C203.802 474.442 210.34 474.443 216.879 474.438 C222.196 474.434 227.514 474.435 232.832 474.44 C233.59 474.441 234.348 474.442 235.13 474.443 C236.671 474.444 238.212 474.446 239.753 474.447 C254.186 474.461 268.62 474.456 283.053 474.444 C296.24 474.434 309.426 474.447 322.612 474.471 C336.173 474.495 349.733 474.505 363.294 474.498 C370.898 474.495 378.503 474.497 386.108 474.515 C392.582 474.529 399.056 474.53 405.53 474.513 C408.829 474.504 412.127 474.504 415.426 474.517 C419.012 474.53 422.598 474.519 426.184 474.501 C427.212 474.511 428.241 474.52 429.3 474.53 C440.154 474.421 450.731 471.239 459 464 C471.555 450.277 472.309 437.188 472.267 419.167 C472.271 417.618 472.276 416.068 472.281 414.519 C472.293 410.3 472.293 406.081 472.291 401.862 C472.29 397.297 472.301 392.732 472.311 388.167 C472.327 379.239 472.333 370.312 472.334 361.385 C472.335 354.126 472.339 346.868 472.346 339.61 C472.363 319.007 472.372 298.404 472.371 277.801 C472.371 276.692 472.371 275.583 472.371 274.441 C472.37 272.775 472.37 272.775 472.37 271.077 C472.37 253.074 472.389 235.071 472.417 217.068 C472.446 198.559 472.459 180.05 472.458 161.541 C472.457 151.159 472.462 140.777 472.484 130.395 C472.502 121.56 472.507 112.724 472.493 103.889 C472.487 99.385 472.486 94.881 472.504 90.377 C472.52 86.247 472.517 82.118 472.499 77.988 C472.496 76.501 472.5 75.014 472.511 73.527 C472.602 60.621 470.949 49.159 462.207 39.152 C458.796 35.826 455.17 33.283 451 31 C449.869 30.323 448.738 29.645 447.573 28.947 C442.255 26.317 437.206 26.443 431.368 26.492 C430.213 26.486 429.059 26.48 427.869 26.473 C424.682 26.46 421.495 26.465 418.307 26.477 C414.862 26.486 411.418 26.472 407.973 26.461 C401.232 26.443 394.49 26.447 387.748 26.459 C382.266 26.468 376.784 26.469 371.302 26.465 C370.521 26.464 369.739 26.464 368.935 26.463 C367.348 26.462 365.76 26.46 364.173 26.459 C349.298 26.448 334.423 26.461 319.548 26.482 C306.799 26.5 294.05 26.497 281.301 26.479 C266.483 26.457 251.664 26.449 236.846 26.461 C235.264 26.462 233.682 26.463 232.1 26.465 C231.321 26.465 230.543 26.466 229.741 26.467 C224.27 26.47 218.8 26.464 213.329 26.455 C206.655 26.444 199.981 26.447 193.306 26.468 C189.904 26.478 186.503 26.48 183.101 26.469 C179.404 26.458 175.709 26.472 172.013 26.492 C170.417 26.479 170.417 26.479 168.79 26.465 C156.008 26.598 145.454 31.297 137.184 41.168 Z " fill="#F4F6F7" transform="translate(0,0)"/>
<path d="M0 0 C1.131 -0.002 2.262 -0.005 3.427 -0.007 C7.202 -0.013 10.976 -0.012 14.751 -0.012 C17.463 -0.014 20.176 -0.018 22.888 -0.022 C29.482 -0.03 36.076 -0.033 42.67 -0.033 C48.032 -0.034 53.394 -0.036 58.756 -0.039 C73.975 -0.048 89.195 -0.052 104.415 -0.052 C105.234 -0.052 106.053 -0.052 106.898 -0.052 C107.718 -0.052 108.538 -0.052 109.384 -0.051 C122.681 -0.051 135.977 -0.061 149.274 -0.075 C162.944 -0.089 176.615 -0.096 190.285 -0.095 C197.953 -0.095 205.621 -0.098 213.289 -0.108 C219.816 -0.117 226.344 -0.12 232.872 -0.113 C236.199 -0.11 239.526 -0.111 242.853 -0.118 C246.468 -0.126 250.082 -0.121 253.698 -0.114 C255.257 -0.121 255.257 -0.121 256.848 -0.129 C263.583 -0.098 269.893 0.717 276.476 2.134 C276.476 2.794 276.476 3.454 276.476 4.134 C275.536 4.136 274.597 4.138 273.628 4.141 C250.716 4.2 227.803 4.276 204.89 4.369 C193.809 4.414 182.729 4.454 171.648 4.48 C161.985 4.503 152.321 4.537 142.658 4.582 C137.546 4.606 132.435 4.625 127.323 4.631 C122.501 4.637 117.679 4.658 112.857 4.688 C111.097 4.697 109.338 4.701 107.578 4.699 C87.209 4.685 71.549 7.379 56.476 22.134 C55.816 22.794 55.156 23.454 54.476 24.134 C51.828 24.399 51.828 24.399 48.425 24.421 C47.153 24.434 45.88 24.448 44.57 24.461 C43.887 24.464 43.205 24.467 42.502 24.469 C40.361 24.478 38.22 24.498 36.079 24.522 C31.524 24.57 26.969 24.603 22.413 24.634 C17.157 24.669 11.9 24.712 6.644 24.77 C4.547 24.79 2.451 24.798 0.354 24.806 C-10.868 24.922 -22.232 25.71 -31.048 33.559 C-40.602 43.746 -41.971 54.168 -41.932 67.542 C-41.938 69.118 -41.946 70.695 -41.955 72.272 C-41.975 76.594 -41.977 80.915 -41.975 85.237 C-41.977 89.902 -41.995 94.568 -42.011 99.233 C-42.043 109.43 -42.053 119.626 -42.059 129.823 C-42.063 136.193 -42.072 142.563 -42.081 148.933 C-42.108 166.581 -42.131 184.229 -42.133 201.876 C-42.133 203.005 -42.134 204.134 -42.134 205.297 C-42.134 207.585 -42.134 209.873 -42.135 212.162 C-42.135 213.297 -42.135 214.433 -42.135 215.603 C-42.135 216.741 -42.135 217.878 -42.136 219.05 C-42.139 237.472 -42.175 255.895 -42.227 274.318 C-42.279 293.246 -42.305 312.174 -42.305 331.102 C-42.305 341.724 -42.316 352.346 -42.356 362.968 C-42.39 372.013 -42.399 381.058 -42.377 390.104 C-42.367 394.715 -42.368 399.326 -42.399 403.938 C-42.428 408.167 -42.423 412.396 -42.394 416.625 C-42.389 418.148 -42.396 419.67 -42.415 421.192 C-42.568 433.645 -39.611 443.692 -31.212 453.196 C-24.598 459.12 -16.609 462.256 -7.837 462.26 C-7.162 462.262 -6.487 462.263 -5.791 462.265 C-4.326 462.269 -2.861 462.271 -1.396 462.272 C1.72 462.275 4.837 462.297 7.953 462.317 C13.754 462.355 19.555 462.386 25.356 462.384 C29.393 462.383 33.429 462.407 37.465 462.446 C39.002 462.457 40.539 462.458 42.075 462.45 C44.228 462.441 46.378 462.462 48.53 462.49 C49.753 462.494 50.977 462.497 52.237 462.501 C56.362 463.307 57.799 464.978 60.476 468.134 C73.713 480.776 89.728 482.735 107.301 482.68 C109.165 482.688 111.029 482.699 112.893 482.711 C117.915 482.739 122.937 482.742 127.958 482.741 C133.221 482.744 138.483 482.77 143.746 482.793 C153.693 482.834 163.641 482.854 173.589 482.867 C184.922 482.883 196.255 482.922 207.587 482.962 C230.883 483.044 254.179 483.098 277.476 483.134 C272.589 488.021 263.394 487.368 256.869 487.411 C255.282 487.406 255.282 487.406 253.662 487.401 C252.511 487.406 251.361 487.41 250.176 487.415 C246.343 487.427 242.509 487.426 238.676 487.424 C235.919 487.429 233.162 487.437 230.405 487.445 C223.705 487.461 217.005 487.467 210.306 487.468 C204.856 487.469 199.406 487.473 193.957 487.479 C178.482 487.497 163.006 487.506 147.531 487.505 C146.698 487.504 145.865 487.504 145.007 487.504 C144.173 487.504 143.339 487.504 142.48 487.504 C128.968 487.503 115.457 487.522 101.945 487.551 C88.048 487.579 74.151 487.593 60.254 487.591 C52.461 487.591 44.668 487.596 36.876 487.618 C30.24 487.636 23.605 487.64 16.97 487.627 C13.59 487.62 10.21 487.622 6.83 487.637 C-15.5 487.732 -32.364 485.883 -49.337 470.009 C-63.425 455.079 -67.161 437.656 -67.032 417.681 C-67.037 416.088 -67.043 414.496 -67.051 412.903 C-67.068 408.575 -67.06 404.247 -67.047 399.918 C-67.038 395.232 -67.052 390.545 -67.063 385.859 C-67.081 376.698 -67.077 367.537 -67.065 358.376 C-67.056 350.928 -67.055 343.48 -67.06 336.032 C-67.06 334.969 -67.061 333.907 -67.061 332.812 C-67.063 330.653 -67.064 328.494 -67.065 326.335 C-67.077 306.123 -67.064 285.911 -67.042 265.7 C-67.024 248.375 -67.027 231.05 -67.046 213.725 C-67.067 193.578 -67.076 173.431 -67.063 153.284 C-67.062 151.134 -67.061 148.984 -67.06 146.834 C-67.059 145.777 -67.058 144.719 -67.058 143.629 C-67.054 136.193 -67.06 128.756 -67.069 121.32 C-67.081 112.254 -67.078 103.188 -67.056 94.122 C-67.046 89.5 -67.042 84.879 -67.055 80.258 C-67.067 76.021 -67.06 71.784 -67.039 67.547 C-67.035 66.021 -67.037 64.495 -67.047 62.969 C-67.154 44.797 -61.875 29.917 -49.212 16.708 C-34.89 2.99 -19.267 -0.029 0 0 Z " fill="#028EDD" transform="translate(71.52426147460938,6.8662872314453125)"/>
<path d="M0 0 C1.361 0.897 1.361 0.897 2.75 1.812 C7.659 6.585 9.183 13.421 9.5 20.062 C9.572 21.126 9.644 22.189 9.719 23.285 C7.794 33.231 -1.472 40.915 -8.382 47.802 C-9.414 48.841 -10.444 49.88 -11.475 50.92 C-14.249 53.716 -17.032 56.503 -19.818 59.287 C-22.151 61.62 -24.481 63.958 -26.81 66.296 C-32.307 71.812 -37.812 77.32 -43.322 82.823 C-48.991 88.485 -54.645 94.163 -60.293 99.847 C-65.16 104.745 -70.036 109.633 -74.92 114.513 C-77.83 117.42 -80.735 120.331 -83.632 123.252 C-86.354 125.997 -89.088 128.729 -91.832 131.452 C-92.832 132.449 -93.828 133.45 -94.82 134.456 C-101.177 140.899 -106.905 145.922 -116.004 147.531 C-132.836 147.326 -143.27 132.891 -154.395 121.773 C-155.556 120.615 -156.718 119.456 -157.881 118.298 C-160.297 115.887 -162.711 113.475 -165.124 111.062 C-168.203 107.982 -171.289 104.91 -174.376 101.84 C-176.771 99.456 -179.161 97.068 -181.549 94.679 C-182.685 93.545 -183.823 92.412 -184.962 91.28 C-201.937 74.411 -201.937 74.411 -202.312 64.25 C-202.099 56.682 -200.506 51.207 -195.25 45.625 C-189.306 40.21 -184.026 38.696 -176.137 38.406 C-166.116 40.303 -159.569 46.796 -152.758 53.93 C-151.819 54.89 -150.879 55.85 -149.937 56.808 C-146.985 59.816 -144.054 62.844 -141.125 65.875 C-137.707 69.411 -134.281 72.938 -130.834 76.446 C-129.463 77.849 -128.108 79.267 -126.753 80.686 C-125.51 81.953 -125.51 81.953 -124.243 83.246 C-123.155 84.372 -123.155 84.372 -122.046 85.521 C-120.161 87.23 -120.161 87.23 -118.101 86.8 C-115.553 85.83 -114.251 84.615 -112.332 82.68 C-111.62 81.969 -110.908 81.258 -110.175 80.526 C-109.404 79.741 -108.633 78.956 -107.838 78.147 C-107.018 77.324 -106.198 76.502 -105.354 75.654 C-102.638 72.926 -99.932 70.187 -97.227 67.449 C-95.342 65.554 -93.456 63.659 -91.57 61.765 C-86.088 56.259 -80.618 50.743 -75.149 45.225 C-68.196 38.211 -61.237 31.203 -54.27 24.203 C-51.019 20.937 -47.777 17.663 -44.537 14.387 C-42.832 12.671 -41.126 10.956 -39.42 9.241 C-38.653 8.462 -37.886 7.683 -37.096 6.881 C-27.045 -3.193 -12.919 -9.491 0 0 Z " fill="#FCFDFE" transform="translate(395,187)"/>
<path d="M0 0 C0.66 0.33 1.32 0.66 2 1 C-2.29 5.29 -6.58 9.58 -11 14 C-11 9.823 -8.77 7.863 -6 5 C-4.052 3.248 -2.057 1.626 0 0 Z " fill="#2F9BE0" transform="translate(147,32)"/>
</svg>
